<svg width="80" height="78" viewBox="0 0 80 78" fill="none" xmlns="http://www.w3.org/2000/svg">
<g clip-path="url(#clip0_1_63)">
<path d="M78.2809 48.7199C72.3034 42.5162 55.9897 45.0449 52.0784 45.5024C46.3322 39.9874 42.4259 33.3212 41.0484 31.0237C43.1147 24.82 44.4972 18.6112 44.7234 11.95C44.7234 6.20373 42.4259 0 35.9909 0C33.6934 0 31.6222 1.37749 30.4759 3.21749C27.7159 8.04374 28.8672 17.6962 33.2359 27.58C30.7072 34.7037 28.4097 41.5962 21.9747 53.7774C15.3085 56.5324 1.28723 62.9724 0.140996 69.8649C-0.316492 71.9311 0.372253 74.0024 1.981 75.6111C3.58975 76.9886 5.65598 77.6774 7.72725 77.6774C16.2285 77.6774 24.5035 65.9586 30.2497 56.0749C35.076 54.4662 42.6622 52.1687 50.2434 50.7912C59.2072 58.6037 67.0196 59.7549 71.1571 59.7549C76.6721 59.7549 78.7434 57.4574 79.4321 55.3862C80.5834 53.0887 79.8896 50.5599 78.2809 48.7199ZM72.5346 52.6312C72.3034 54.2399 70.2371 55.8487 66.5622 54.9287C62.1934 53.7774 58.2872 51.7112 54.8434 48.9512C57.8297 48.4937 64.4959 47.7999 69.3222 48.7199C71.1622 49.1774 72.9971 50.3287 72.5397 52.6262L72.5346 52.6312ZM34.156 5.28373C34.6134 4.59499 35.3072 4.1375 35.996 4.1375C38.0622 4.1375 38.5247 6.66625 38.5247 8.73248C38.2934 13.5587 37.3734 18.385 35.7647 22.98C32.3159 13.785 33.0047 7.34997 34.156 5.28373ZM33.6934 49.8712C35.5334 46.1962 38.0622 39.7562 38.9772 37.0012C41.0434 40.4499 44.4922 44.5874 46.3322 46.4224C46.3322 46.6537 39.2084 48.0312 33.6934 49.8712ZM20.1347 59.0611C14.851 67.7936 9.33097 73.3086 6.34473 73.3086C5.88724 73.3086 5.42473 73.0774 4.96724 72.8511C4.27849 72.3936 4.04724 71.6999 4.27849 70.7849C4.96724 67.5674 10.9447 63.1986 20.1347 59.0662V59.0611Z" fill="#6B7280"/>
</g>
<defs>
<clipPath id="clip0_1_63">
<rect width="80" height="77.6774" fill="white"/>
</clipPath>
</defs>
</svg>
