<svg width="85" height="62" viewBox="0 0 85 62" fill="none" xmlns="http://www.w3.org/2000/svg">
<g clip-path="url(#clip0_1_60)">
<path d="M82.5212 18.6704C80.9128 15.0253 78.663 11.7815 75.7698 8.93495C72.8766 6.1343 69.5255 3.91059 65.76 2.39947C61.9492 0.800459 57.8166 0 53.5459 0C48.9534 0 44.5446 0.934187 40.412 2.7548C36.6465 4.4436 33.2954 6.75518 30.4476 9.7335C29.2083 9.55584 27.9215 9.46605 26.6368 9.46605C23.0548 9.46605 19.5656 10.1328 16.258 11.5102C13.0885 12.7997 10.2426 14.6662 7.80926 17.0656C5.3759 19.4212 3.44579 22.1779 2.11563 25.2899C0.736127 28.4937 0 31.8732 0 35.3405C0 38.8079 0.688762 42.1855 2.11168 45.3874C3.44381 48.4555 5.37195 51.2103 7.80532 53.6116C10.2387 55.9672 13.0865 57.9674 16.254 59.2569C19.5597 60.5903 23.0508 61.3908 26.6328 61.3908H53.4965C57.7672 61.3908 61.8998 60.4566 65.7561 58.8576C69.5216 57.3006 72.8727 55.0349 75.7658 52.2342C78.659 49.4336 80.9562 46.1439 82.5173 42.4988C84.1711 38.72 84.998 34.7197 84.998 30.5856C84.998 26.4514 84.1711 22.4511 82.5173 18.6723L82.5212 18.6704ZM26.6802 55.566C15.2455 55.566 5.96993 46.4973 5.96993 35.4284C5.96993 24.3595 15.2455 15.3367 26.6348 15.3367C31.9613 15.3367 36.83 17.2471 40.5028 20.449L49.8238 29.6953C50.6961 30.5836 50.6961 32.0069 49.7784 32.8513C48.8607 33.6957 47.3904 33.6957 46.5181 32.8074L37.2425 23.561C34.4421 21.1596 30.722 19.7383 26.6802 19.7383C17.817 19.7383 10.6077 26.673 10.6077 35.2527C10.6077 43.8323 17.819 50.811 26.6821 50.811L31.8252 50.9447C33.5244 52.6335 35.4525 54.2784 37.5188 55.5679H26.6821L26.6802 55.566ZM53.5439 55.2985C46.4727 55.2985 40.0883 52.5437 35.4505 48.0524L23.1436 36.0952C22.2713 35.2068 22.2713 33.7836 23.189 32.9392C24.1067 32.0948 25.577 32.0948 26.4493 32.9831L38.7108 44.8524C42.5217 48.5414 47.7575 50.8091 53.5439 50.8091C65.1167 50.8091 74.483 41.7404 74.483 30.5397C74.483 19.339 65.1147 10.2703 53.5439 10.2703C48.6298 10.2703 44.0828 11.9152 40.5008 14.6719C39.1233 13.7836 37.655 13.071 36.0919 12.4482C40.6843 8.31407 46.7905 5.78088 53.5419 5.78088C67.6862 5.78088 79.1208 16.8498 79.1208 30.5416C79.1208 44.2335 67.6862 55.3023 53.5419 55.3023L53.5439 55.2985Z" fill="#6B7280"/>
</g>
<defs>
<clipPath id="clip0_1_60">
<rect width="85" height="61.3889" fill="white"/>
</clipPath>
</defs>
</svg>
