<svg width="82" height="70" viewBox="0 0 82 70" fill="none" xmlns="http://www.w3.org/2000/svg">
<path fill-rule="evenodd" clip-rule="evenodd" d="M11.0034 47.5129L6.96618 56.0603C4.91111 60.4075 6.45545 65.7588 10.6872 68.0242C15.1743 70.4244 20.695 68.5508 22.8595 63.9832L26.5441 56.1828C20.8531 54.3337 15.5756 51.3948 11.0034 47.5129Z" fill="#374151"/>
<path opacity="0.5" fill-rule="evenodd" clip-rule="evenodd" d="M74.7957 11.2661C69.9924 10.2987 65.3229 13.4335 64.3622 18.2705C63.511 22.5565 61.5168 26.5485 58.7686 29.9405L66.8308 47.0353C74.2728 40.5329 79.7692 31.6794 81.7391 21.7728C82.6998 16.9235 79.5868 12.2212 74.7957 11.2661Z" fill="#9CA3AF"/>
<path fill-rule="evenodd" clip-rule="evenodd" d="M43.7386 39.6514C42.0119 40.0677 40.2486 40.2882 38.4854 40.2882C37.1113 40.2882 35.6886 40.129 34.2658 39.8228C28.3681 38.5615 22.434 34.8879 19.0778 30.4182C18.2387 29.3039 17.5577 28.1406 17.0835 26.9527C15.2473 22.3852 10.0792 20.181 5.54347 22.0178C1.00772 23.8669 -1.18111 29.0712 0.642915 33.6388C2.72231 38.8309 6.39468 43.5945 11.0034 47.513C15.5756 51.3949 20.841 54.3338 26.5319 56.1829C30.4354 57.4442 34.4847 58.1422 38.4732 58.1422C42.8996 58.1422 47.2651 57.3707 51.4238 55.9625L43.7386 39.6514Z" fill="#6B7280"/>
<path fill-rule="evenodd" clip-rule="evenodd" d="M71.0868 56.0234L66.8307 47.0107L58.7685 29.9281L47.0461 5.09415C45.5747 1.98378 42.4617 0 39.0447 0C35.6277 0 32.5147 1.98378 31.0433 5.09415L19.0898 30.418C22.4461 34.8876 28.3802 38.5612 34.2779 39.8225L38.1448 31.6425C38.5097 30.871 39.6041 30.871 39.9689 31.6425L43.7507 39.6511L51.4481 55.9622L55.2299 63.9708C56.7013 67.0811 59.8143 69.0649 63.2435 69.0649C64.0339 69.0649 64.8243 68.9547 65.6025 68.7343C70.9409 67.2526 73.4702 61.0686 71.0868 56.0234Z" fill="#9CA3AF"/>
</svg>
