<svg width="52" height="52" viewBox="0 0 52 52" fill="none" xmlns="http://www.w3.org/2000/svg">
<g clip-path="url(#clip0_4028_263)">
<mask id="mask0_4028_263" style="mask-type:luminance" maskUnits="userSpaceOnUse" x="0" y="0" width="52" height="52">
<path d="M25.9064 51.657C40.128 51.657 51.657 40.128 51.657 25.9064C51.657 11.6847 40.128 0.155762 25.9064 0.155762C11.6847 0.155762 0.155762 11.6847 0.155762 25.9064C0.155762 40.128 11.6847 51.657 25.9064 51.657Z" fill="white"/>
</mask>
<g mask="url(#mask0_4028_263)">
<path d="M51.8114 0H0.00012207V51.8113H51.8114V0Z" fill="white"/>
<path d="M31.272 45.3453C30.8654 47.3365 28.2359 48.5363 23.8085 46.7366C19.2062 44.8804 17.2149 40.453 16.7134 39.1383C19.4395 34.0343 17.5449 30.4951 17.5449 30.4951C23.8285 29.9535 29.3207 37.3003 29.3207 37.3003L30.1722 40.9345C30.2489 41.2445 30.4038 41.5144 30.6354 41.7077C31.042 42.4226 31.5252 44.0672 31.2736 45.3419L31.272 45.3453Z" fill="white"/>
<path d="M16.6167 39.1967C16.9833 38.6351 17.2166 37.9786 17.3716 37.3404C17.6615 36.0057 17.7581 34.6526 17.7781 33.2996V32.7963C17.7198 32.2931 17.5465 31.7716 17.3532 31.3083C17.1016 30.6901 18.0114 30.3035 18.3014 30.9217C18.3397 30.9984 18.3397 31.135 18.3397 31.2117C18.398 33.8411 18.513 37.2254 16.85 39.4099C16.7334 39.5266 16.5017 39.3516 16.6184 39.1967H16.6167Z" fill="#374151"/>
<path d="M29.5323 37.2637C29.8222 37.437 29.9189 37.6703 29.9572 37.9019C30.0738 38.3651 30.0339 38.8683 30.1505 39.3516C30.2471 39.8148 30.5371 40.2597 30.6137 40.7429C30.7104 41.2462 31.0003 42.3093 31.117 42.8308C31.1553 42.9475 31.0786 43.0824 30.9437 43.1008C30.867 43.1208 30.8087 43.1008 30.7504 43.0625C30.4988 42.8492 30.3838 42.6375 30.2288 42.3659C29.9772 41.9027 29.8039 41.4761 29.6489 40.9546C29.514 40.4913 29.5723 39.9881 29.4556 39.5049C29.359 39.0416 29.0891 38.5967 28.9924 38.1135C28.9341 37.8819 28.9158 37.6303 29.0891 37.3403C29.2057 37.2237 29.399 37.1854 29.534 37.2637H29.5323Z" fill="#374151"/>
<path d="M30.9236 42.3675C27.231 42.1742 24.215 41.0145 21.2756 35.7739C23.7501 37.9585 26.6695 38.79 29.7438 39.1765L30.1504 40.9562C30.2271 41.2661 30.692 42.1742 30.9236 42.3675Z" fill="#374151"/>
<path d="M30.7687 41.6529C31.4269 42.8909 31.8135 44.4373 31.4069 45.8103C31.097 46.7768 30.2088 47.4933 29.2407 47.7632C26.9978 48.3631 24.4067 47.415 22.4155 46.3519C19.9593 44.9788 18.143 42.6777 16.9816 40.1649C16.905 39.9716 17.1749 39.8166 17.2916 40.0099C17.6981 40.8214 18.1614 41.6145 18.6829 42.3294C19.2045 43.0642 19.8044 43.7408 20.4809 44.3406C22.4538 46.1203 25.1216 47.2217 27.7893 47.2217C30.5354 47.145 31.5785 45.6937 30.9403 43.0259C30.8437 42.601 30.6887 42.1561 30.4771 41.7878C30.3605 41.6329 30.6504 41.4596 30.767 41.6529H30.7687Z" fill="#374151"/>
<path d="M38.252 18.431C38.6003 20.0556 37.9238 20.7905 37.9238 25.1395C37.9238 27.3241 37.7105 29.8185 37.2856 32.2164C36.8406 34.6908 35.6026 37.0303 33.5347 38.7716C30.402 41.3811 27.116 41.4977 23.2285 38.4617C22.687 38.0368 20.7924 36.6054 20.3091 36.1222C19.226 35.0591 19.1294 32.313 18.4329 31.2499C17.9496 30.5151 17.6597 31.6948 16.5566 30.4767C15.0286 28.8138 13.1923 25.4695 14.1005 19.5524C15.5701 9.96274 23.1685 8.84131 28.7957 9.90442C34.4228 10.9492 37.3222 14.1585 38.2504 18.431H38.252Z" fill="white"/>
<path d="M17.4864 32.158C16.8099 31.0566 15.8618 30.1284 15.2436 28.987C13.3673 25.5261 12.9807 21.3103 13.9872 17.5211C16.1334 9.40113 24.0217 8.00809 31.1769 10.2126C35.0444 11.4107 37.8855 14.3318 38.6786 18.3526C38.9686 19.8023 38.3504 21.1953 38.2537 22.6067C38.1571 23.4582 38.1187 24.308 38.1371 25.1595C38.2337 27.7506 38.1571 30.38 37.3822 32.8745C36.5891 35.369 35.2943 37.8434 33.1481 39.4481C29.1073 42.4641 24.3317 40.2596 21.199 37.0703C21.1023 36.9736 21.2373 36.8187 21.354 36.897C23.4035 38.3667 25.5881 39.758 28.1025 40.0297C32.4916 40.5329 35.546 36.4337 36.8423 32.7212C37.4039 31.1165 37.6938 29.4336 37.7505 27.7522C37.8088 26.0309 37.6738 24.3113 37.7305 22.59C37.7505 22.1651 37.7688 21.7202 37.8071 21.2953C37.8655 20.6188 38.0388 19.4973 37.9038 18.8391C37.4972 16.8279 36.6091 14.895 35.1777 13.4053C31.8334 9.94435 25.5297 8.95789 21.0823 10.5626C15.8618 12.4771 14.4887 17.716 14.1988 22.7433C14.0055 25.7593 14.8953 28.6987 17.1765 30.7666L18.0846 31.7147C18.4512 32.1013 17.7947 32.6229 17.4848 32.1597L17.4864 32.158Z" fill="#374151"/>
<path d="M19.7676 26.0096C19.7676 26.0096 19.1677 23.1085 16.3449 23.4568C13.9088 23.7667 13.0573 29.6055 18.5878 31.2301" fill="white"/>
<path d="M18.3363 28.6972C17.8914 28.4456 17.5814 28.0207 17.5631 27.4991C17.5831 27.1125 17.6397 26.6676 17.5431 26.281C17.4848 25.9145 17.0982 25.8178 16.8083 25.8361C16.4983 25.8945 16.305 26.281 16.2467 26.591C16.2467 26.611 16.2267 26.6676 16.2267 26.6876C16.2067 26.7843 16.0534 26.7843 16.0134 26.6876C15.7618 25.9328 16.3234 25.103 17.1349 25.1996C18.2763 25.2763 18.4296 26.476 18.218 27.3841C18.1013 27.7707 18.2563 28.119 18.4696 28.4473L18.5079 28.5056C18.6045 28.6222 18.4496 28.7755 18.3346 28.6989L18.3363 28.6972Z" fill="#374151"/>
<path d="M33.8046 23.9597C34.0945 25.3327 34.636 26.6091 35.3126 27.8072C35.9124 29.2769 34.3644 30.6683 32.9931 30.6116C32.8381 30.6116 32.8198 30.3983 32.9547 30.36C33.8246 30.0901 34.6177 29.5085 34.7527 28.6204C34.811 28.3504 34.7327 28.1171 34.5977 27.8855C33.9595 26.6874 33.5729 25.3144 33.6696 23.9597C33.6696 23.863 33.8046 23.863 33.8046 23.9597Z" fill="#374151"/>
<path d="M19.671 26.0296C19.2261 24.8882 18.2596 23.8068 16.9649 23.8251C16.8483 23.8051 16.655 23.8451 16.54 23.8451C16.2117 23.8651 15.9401 23.9801 15.6885 24.2117C14.4504 25.4498 14.6637 27.6343 15.6685 29.0074C16.0168 29.4906 16.4617 29.9155 16.9632 30.2638C17.4665 30.612 18.0263 30.882 18.6262 31.1152C18.7612 31.1536 18.7029 31.3669 18.5679 31.3469C17.2732 31.0769 16.0351 30.4387 15.1836 29.3739C13.8689 27.7893 13.5973 25.1398 15.1636 23.5935C15.5119 23.2836 15.9951 23.0519 16.4783 23.0519C16.6333 23.0519 16.8649 23.0136 17.0199 23.0519C17.8314 23.0903 18.6045 23.4969 19.1078 24.135C19.5527 24.6766 19.8043 25.3331 19.8809 25.9913C19.8809 26.108 19.7076 26.1463 19.6677 26.0296H19.671Z" fill="#374151"/>
<path d="M39.7217 13.8287C41.0947 8.85976 35.5259 5.74709 34.0379 7.98995C32.9548 9.6146 28.779 8.35653 22.437 8.24156C16.095 8.10659 14.3937 11.4709 14.3171 15.0868C14.3171 15.0868 11.5327 16.5565 11.7076 21.7387C11.8809 27.1142 17.4114 31.445 18.0879 34.1711C18.0879 34.1711 18.1646 34.5193 17.4314 30.7868C13.2156 28.7572 14.1054 23.7483 16.3683 23.4583C18.0896 23.2451 18.9977 24.2515 19.4227 25.063C19.596 25.2946 21.2406 27.3059 21.2789 20.7323C21.2989 16.2465 25.668 14.7768 30.637 16.5948C33.2281 17.5429 35.9542 18.2378 37.8304 16.8847C38.1404 17.7745 38.4686 18.761 38.217 19.9591C38.9719 19.2626 39.6084 18.2378 39.7834 16.9814C39.9 16.2265 39.7067 15.57 39.2801 14.9901C39.4534 14.6619 39.6084 14.2553 39.725 13.8304L39.7217 13.8287Z" fill="#374151"/>
<path d="M35.1576 35.7174C35.4476 34.1894 35.5442 32.6431 35.2926 31.1151C35.196 30.5352 34.8477 29.5687 34.3061 29.9936C34.0929 30.1669 32.9914 30.5152 32.7781 30.5352C32.1599 30.5935 31.695 30.5152 31.2501 30.1686C30.7469 29.762 30.7469 29.5887 30.6319 29.5504C28.6024 28.8739 26.0496 28.1973 25.2181 30.9234C24.5415 33.1463 22.8402 35.3325 21.5838 33.1663C20.6174 31.5233 20.6757 28.3906 20.5391 27.7324C20.2108 26.1078 19.7459 25.3163 19.476 25.5479C19.476 26.0695 19.6492 32.2382 19.6692 32.5664C19.8042 34.2677 20.0175 34.8093 20.7907 35.9107C21.5638 37.0122 24.2716 40.0099 27.7892 40.2615C31.3268 40.5131 33.2797 40.2231 35.2526 37.9603C37.0322 35.9107 37.0889 31.6566 37.0889 31.6566C36.2191 34.2277 35.6192 35.0792 35.156 35.7174H35.1576ZM27.1927 31.3667C28.1974 30.2652 29.6671 31.54 31.2535 31.6566C32.8198 31.7733 33.458 30.7868 33.573 32.5264C33.6113 32.9513 33.6696 33.6679 33.6496 34.1511V34.2094C33.5913 34.751 33.418 35.3508 32.8765 35.6791C31.735 36.3939 29.8987 36.2207 28.719 35.989C27.076 35.6608 26.7278 34.9059 26.6494 34.5577C26.5328 33.0697 26.7844 31.8116 27.191 31.3667H27.1927Z" fill="#374151"/>
<path d="M32.3349 33.7447C31.0969 34.9245 28.7574 33.9763 28.1392 32.5466C28.0625 32.3733 28.2558 32.2184 28.4091 32.295C28.7374 32.4683 29.0273 32.6433 29.3372 32.7783C30.2271 33.1848 31.1552 33.5131 32.1417 33.4165C32.3349 33.3781 32.4699 33.6097 32.3349 33.7447Z" fill="#374151"/>
<path d="M27.101 25.9028C26.6378 25.8828 26.2895 25.4962 26.3278 25.0329L26.3478 24.4914C26.3678 24.0282 26.7544 23.6799 27.2176 23.7182C27.6809 23.7382 28.0291 24.1248 27.9908 24.588L27.9708 25.1296C27.9508 25.5745 27.5642 25.9227 27.101 25.9028Z" fill="#374151"/>
<path d="M35.2428 26.193C34.8179 26.173 34.4879 25.8064 34.5079 25.3815L34.5279 24.8783C34.5479 24.4534 34.9145 24.1234 35.3394 24.1434C35.7643 24.1634 36.0943 24.53 36.0743 24.9549L36.0543 25.4582C36.0343 25.8831 35.6677 26.213 35.2428 26.193Z" fill="#374151"/>
<path d="M28.8423 24.8598C28.2041 24.4349 27.5076 24.145 26.7344 24.2983C26.4828 24.3366 26.2312 24.4149 26.0762 24.5882C26.0179 24.6648 25.8829 24.6465 25.8829 24.5299C25.9029 24.1433 26.2312 23.8917 26.5411 23.7367C27.141 23.4268 27.9725 23.4851 28.514 23.8917C28.7073 24.0083 29.3655 24.7232 29.0173 24.8781C28.9406 24.9165 28.9006 24.8981 28.844 24.8581L28.8423 24.8598Z" fill="#374151"/>
<path d="M34.3712 24.9563C34.3712 24.1448 35.376 23.8549 35.9959 24.1448C36.3441 24.2998 36.5957 24.608 36.6924 24.9763C36.7307 25.0929 36.5574 25.1896 36.4791 25.0929C36.1508 24.7064 35.5893 24.5131 35.1444 24.7447C35.0094 24.8213 34.9894 24.8797 34.9511 24.958C34.9511 25.3446 34.3895 25.3246 34.3712 24.958V24.9563Z" fill="#374151"/>
<path d="M29.7705 21.6687C30.1771 21.8037 30.582 21.4371 30.5053 20.9922C30.467 20.7606 30.3704 20.5289 30.1771 20.354C29.5972 19.8324 27.1994 19.3675 25.7497 20.044C24.4733 20.6622 27.9159 21.0488 29.7721 21.6687H29.7705Z" fill="#374151"/>
<path d="M35.5509 21.9786C35.2226 22.0952 34.8744 21.747 34.9327 21.3404C34.9527 21.1271 35.0294 20.9155 35.1843 20.7605C35.6476 20.2973 37.2339 19.929 38.2387 20.6439C39.1085 21.2438 37.0589 21.4171 35.5509 21.9786Z" fill="#374151"/>
<path d="M29.2805 27.3442C29.2805 27.3442 27.4626 28.4857 25.413 28.4657C23.3634 28.4457 23.1118 26.841 23.0935 25.9712C23.0935 25.9712 23.3634 27.2276 24.6015 27.6925C25.8196 28.1557 29.2805 27.3442 29.2805 27.3442Z" fill="#374151"/>
<path d="M35.1194 27.1309C35.1194 27.1309 35.5643 27.6724 36.1642 28.059C36.5707 28.3289 37.1123 28.039 37.1123 27.5558C37.1123 27.5558 35.9909 27.6141 35.1211 27.1309H35.1194Z" fill="#374151"/>
<path d="M29.957 22.1819C28.9123 22.0853 26.2828 21.872 25.278 21.7753L24.5049 21.717C23.8667 21.6787 23.3634 22.2202 23.2485 22.8384C23.2101 23.0317 23.2101 23.36 23.2101 23.5533V24.3465C23.2101 24.8297 23.1901 25.3329 23.3651 25.7961C23.675 26.8793 24.6598 27.7491 25.8213 27.6141C25.9379 27.5941 26.6527 27.5174 26.7877 27.4975L28.3541 27.3242C28.8573 27.2858 29.3205 27.1509 29.7654 26.8793C30.3836 26.5127 30.9835 25.9511 30.9452 25.1579L30.9835 24.3848C31.0218 23.4183 31.2934 22.2769 29.9587 22.1802L29.957 22.1819ZM30.0154 21.5437C30.9235 21.6204 31.5434 22.5685 31.4851 23.4383C31.4851 23.555 31.4467 24.2898 31.4267 24.4248C31.4267 24.5797 31.3884 25.2763 31.3684 25.4112C31.2718 26.726 29.8021 27.6541 28.604 27.8274C27.9858 27.904 26.6894 28.079 26.0712 28.1556C25.9162 28.1756 25.7046 28.194 25.5496 28.214C25.473 28.214 25.298 28.194 25.2214 28.194C23.5784 27.9807 22.5336 26.2994 22.5719 24.733V23.5533C22.5719 23.4183 22.5719 23.0701 22.5919 22.9351C22.6503 22.2586 23.0168 21.6004 23.6367 21.2338C23.9067 21.0788 24.2366 21.0022 24.5649 21.0205L25.358 21.0971C26.3245 21.2138 28.9923 21.4637 30.017 21.542L30.0154 21.5437Z" fill="#374151"/>
<path d="M34.5012 21.8536C34.9261 21.7953 37.014 21.5636 37.4022 21.5253C37.4989 21.5253 37.7505 21.487 37.8271 21.487C38.6586 21.3703 39.0452 22.2802 39.1218 22.9567C39.1602 23.5566 39.1218 24.1364 39.1418 24.7163C39.1418 25.1229 39.1035 25.5278 39.0069 25.9144C38.7553 26.9592 38.0204 28.0606 36.8023 27.7123C36.5124 27.654 35.9325 27.5774 35.6609 27.5191L35.371 27.4607C34.8094 27.3641 34.3462 26.9775 34.0362 26.5526C33.4564 25.8761 33.573 24.9679 33.5147 24.1548C33.438 23.3433 33.4564 22.0852 34.5012 21.8536ZM34.5778 22.4135C33.9779 22.6834 34.1329 23.5932 34.1329 24.1348L34.1712 25.2945C34.1912 26.0294 34.7711 26.7642 35.466 26.9575C35.6392 26.9958 36.1241 27.0925 36.3174 27.1308L36.879 27.2474C38.2704 27.6923 38.8119 25.7594 38.7936 24.6946C38.7353 23.8048 39.0069 22.7417 38.3687 22.0269C38.2137 21.8719 38.0587 21.8336 37.8854 21.8719C37.7888 21.8919 37.5372 21.9302 37.4605 21.9486C37.0739 22.0252 34.9861 22.3551 34.5795 22.4118L34.5778 22.4135Z" fill="#374151"/>
<path d="M22.8802 23.6516C22.7252 23.9999 22.5903 23.9615 22.3187 23.9615L21.7571 23.9416C21.0423 23.9032 20.2491 23.8449 19.5342 23.7483C19.1477 23.6899 18.7411 23.6316 18.3545 23.535C18.1995 23.4966 18.1029 23.3417 18.1412 23.1867C18.1795 23.0517 18.2962 22.9551 18.4311 22.9734L19.5526 23.0317L20.674 23.0701C21.0406 23.0901 21.9887 23.1084 22.357 23.1284C22.5503 23.1284 22.7236 23.1484 22.9185 23.0901C22.9952 23.0701 23.0735 23.1101 23.0918 23.1867C23.1118 23.225 23.0918 23.245 23.0918 23.2834L22.8785 23.6499L22.8802 23.6516Z" fill="#374151"/>
<path d="M31.1169 23.245C31.8134 22.8584 33.6497 22.3169 33.998 23.3616C34.1529 23.6316 33.7464 23.8832 33.5731 23.6133C33.5731 23.6516 33.4764 23.6133 33.4381 23.6133C32.7033 23.5549 31.9501 23.6716 31.2152 23.7299C30.9053 23.7682 30.8486 23.3633 31.1186 23.2467L31.1169 23.245Z" fill="#374151"/>
<path d="M13.1941 37.7855C13.1941 37.7855 14.992 37.3606 15.7469 37.3022L15.9785 39.4101C15.9785 39.3901 13.2141 38.327 13.1941 37.7855Z" fill="#374151"/>
<path d="M43.8009 66.1493H-1.40454C-1.40454 66.1493 1.47652 59.9806 2.4813 53.0204C3.17782 48.1681 4.00932 45.557 6.58044 44.0106C9.48149 42.271 14.1605 41.4778 16.0551 40.9746C16.0551 41.0713 16.0751 41.1479 16.0751 41.2446C16.0751 41.2446 18.163 47.4516 23.5968 49.6561C28.0242 51.4541 30.6537 50.256 31.0603 48.2647C31.3119 46.9883 30.5187 44.9004 30.1121 44.2239C29.8805 44.0306 29.7255 43.7407 29.6489 43.4507L29.4939 42.8126C29.9772 42.7159 30.4421 42.5809 30.8853 42.406C33.3798 43.0642 38.1938 44.3206 41.1331 48.0514C41.868 48.9796 44.1692 53.9102 43.7426 62.2434C43.5876 66.5742 43.8009 66.1493 43.8009 66.1493Z" fill="#374151"/>
<path d="M22.1455 53.2537C11.4528 50.1594 8.76501 43.8757 8.76501 43.8757C8.76501 43.8757 10.448 42.8309 11.2395 41.7495C11.7227 41.0913 16.0735 40.3381 16.0735 40.3381C16.1501 41.1696 16.0735 40.3381 16.1318 41.2463C16.1318 41.2463 18.2197 47.4533 23.6535 49.6578C28.0809 51.4558 30.7104 50.2577 31.117 48.2665C31.3686 46.9901 30.5754 44.9022 30.1688 44.2256C29.9372 44.0324 29.7822 43.7424 29.7056 43.4525L29.5506 42.8143C30.6521 42.5827 31.6968 42.1561 32.605 41.5962C32.6433 41.6545 32.6633 41.7128 32.6816 41.7695C33.0882 42.756 34.3246 43.6458 34.3246 43.6458C36.8957 49.7561 33.0299 56.4064 22.1439 53.2554L22.1455 53.2537Z" fill="#374151"/>
<path d="M35.0992 43.3726C35.0992 43.3726 35.9891 42.9477 36.8789 43.0443C37.7687 43.141 42.0028 46.5636 42.4094 47.2784C42.8343 47.9933 42.8159 50.2761 42.3127 50.5661C41.8095 50.856 41.5196 50.2178 41.5196 50.2178C41.5196 50.2178 41.8861 48.1299 41.4812 47.7433C41.0746 47.3568 37.1505 44.0691 37.0155 44.0508C36.8805 44.0308 36.1457 44.6507 36.1457 44.6507L35.1009 43.3743L35.0992 43.3726Z" fill="#374151"/>
<path d="M11.6661 42.1928C11.6661 42.1928 9.65482 41.168 8.90165 41.168C8.14847 41.168 3.75774 43.8741 3.15953 45.2871C2.55965 46.6985 3.37282 49.5412 3.37282 49.5412L4.43593 48.3231C4.43593 48.3231 4.14599 46.1969 4.45592 45.4221C4.76586 44.6489 8.26512 42.3677 8.57505 42.4244C8.88498 42.4627 10.6046 43.5658 10.6046 43.5658L11.6677 42.1928H11.6661Z" fill="#374151"/>
<path d="M16.2284 45.9253C18.0847 49.4829 21.7972 54.2202 28.0042 56.4431C33.5914 58.4543 33.2448 51.7057 32.4316 47.6649C26.8628 48.883 21.2757 48.9796 16.2284 45.9253Z" fill="white"/>
<path d="M32.4316 47.6849C32.2183 46.6218 31.9684 45.7519 31.7934 45.2687C31.4068 44.2239 30.8269 43.2958 30.3054 42.6009C30.0538 42.6776 29.8022 42.7359 29.5506 42.7942L29.7055 43.4324C29.7822 43.7424 29.9371 44.0123 30.1688 44.2056C30.2071 44.2823 30.2654 44.3789 30.3237 44.4955C25.9346 46.1969 20.7524 43.954 20.7524 43.954C19.1861 43.8773 19.3027 45.4237 20.0376 47.26C17.2532 44.6105 16.1117 41.2462 16.1117 41.2462C16.0734 40.6664 16.0351 40.1048 15.9768 39.5449C15.9768 39.5449 14.5454 40.3381 14.797 42.116C14.9136 42.8709 15.3586 44.2823 16.2284 45.9252C21.2756 48.9796 26.8628 48.8829 32.4316 47.6849Z" fill="white"/>
<path d="M32.3549 47.6267C32.2966 47.5301 32.2783 47.4718 32.2383 47.3568C32.0067 46.6019 31.755 45.8104 31.4068 45.1139C31.0002 44.3024 30.4787 43.5676 29.8988 42.8911L30.4403 43.0644L29.6472 43.2777L30.0337 42.6778C30.0721 42.8511 30.1687 43.2577 30.207 43.4126C30.2654 43.6442 30.4387 43.7992 30.5736 43.9742C30.5536 44.1291 30.5353 44.2841 30.497 44.4191C30.5353 44.5357 30.497 44.6707 30.3803 44.729C29.8188 44.999 29.2006 45.2122 28.5824 45.3472C26.3012 45.8104 23.98 45.2889 21.7955 44.6507C21.3706 44.5157 20.984 44.4191 20.5191 44.4574L20.6924 44.4957C20.5757 44.4957 20.4408 44.4957 20.3258 44.534C19.7459 44.7073 20.0159 45.7138 20.1325 46.197C20.2292 46.507 20.3258 46.8152 20.4608 47.1252C20.5774 47.3768 20.4408 47.6667 20.1908 47.7834C19.9975 47.86 19.8042 47.8034 19.6693 47.6667C19.2244 47.2218 18.7995 46.7769 18.4129 46.2937C17.2331 44.824 16.305 43.2193 15.6285 41.4597L16.0917 41.788C15.8217 41.788 15.6085 41.5747 15.5885 41.3247L15.4535 39.6418L16.1883 40.0283C15.3185 40.5499 15.0669 41.633 15.3568 42.5611C15.6468 43.6442 16.1117 44.7273 16.6332 45.7321L16.44 45.5388C21.139 48.6898 26.9977 48.9415 32.3533 47.6267H32.3549ZM32.5099 47.7234C31.8717 48.1866 30.7703 48.5749 29.9571 48.7482C28.0425 49.1731 26.0313 48.9215 24.1183 48.6132C23.5185 48.5165 22.6486 48.3999 22.0304 48.3033L21.0057 48.09C19.6326 47.7617 18.2796 47.3168 16.9648 46.7752L16.4816 46.562L15.9784 46.3487C15.9201 46.3287 15.8617 46.272 15.8234 46.2137C15.1852 44.9756 14.6053 43.6809 14.3354 42.2879C14.0838 41.0698 14.6637 39.7351 15.7468 39.0969C16.0567 38.9236 16.4616 39.1352 16.4816 39.4835L16.6166 41.1848C16.6166 41.1848 16.1134 40.7215 16.1334 40.7215C16.3466 40.7215 16.5399 40.8565 16.5966 41.0498C17.1965 42.6744 18.1046 44.2408 19.2077 45.5938C19.5743 46.0571 19.9809 46.4636 20.3875 46.8886L19.5943 47.4301C19.2077 46.3853 18.6861 45.0523 19.381 44.0075C19.7093 43.5826 20.2708 43.4276 20.7924 43.4459L20.9657 43.4843C21.2356 43.8325 21.6239 43.9875 21.9904 44.1025C23.885 44.7207 25.9346 44.8373 27.9259 44.6824C28.719 44.6057 29.4922 44.4507 30.2654 44.2574L30.1487 44.5674C30.0137 44.5091 29.8971 44.4707 29.7621 44.4507L29.8588 44.5674C29.4922 44.2574 29.2589 43.7359 29.1823 43.2726L29.0856 42.8861C29.0273 42.6161 29.2023 42.3445 29.4722 42.2862L30.187 42.1129H30.2254C30.4187 42.0546 30.632 42.1512 30.7286 42.3062C31.5018 43.5043 32.0816 44.859 32.3333 46.2703C32.4099 46.5986 32.4499 46.9669 32.5066 47.3151C32.4866 47.4318 32.5066 47.6051 32.5066 47.7217L32.5099 47.7234Z" fill="#374151"/>
<path d="M13.1941 37.7854C13.1941 37.7854 17.9697 37.9404 21.6056 38.9068C21.9539 39.0035 21.9539 41.2463 21.9922 41.6129C22.1272 42.9276 19.3828 45.1705 19.691 46.3503C20.0976 47.8783 31.0603 56.4631 31.157 57.4679C31.2536 58.4727 23.2103 58.2227 18.4346 52.499C13.639 46.7752 14.0073 45.7321 14.0073 45.7321C14.0073 45.7321 13.1958 40.2415 13.1958 37.7854H13.1941Z" fill="#374151"/>
<path d="M34.6362 39.8532L35.8743 40.3748C36.2608 40.5298 36.4541 40.9747 36.3192 41.3796C35.7576 43.0809 34.3662 47.315 34.3079 48.7847C34.2313 50.6409 30.4021 62.5701 30.4021 62.5701C30.4021 62.5701 28.0626 59.4957 29.7839 56.4597C31.1369 54.0619 31.2152 48.938 31.0786 48.2615C30.9053 47.3716 30.1705 45.2837 29.7639 43.969C29.5506 43.2542 29.5123 42.8093 29.5123 42.8093C29.5123 42.8093 32.18 42.3644 34.6362 39.8516V39.8532Z" fill="#374151"/>
<path d="M20.251 43.0242C20.5609 43.0242 20.8125 42.7393 20.8125 42.386C20.8125 42.0327 20.5609 41.7478 20.251 41.7478C19.9411 41.7478 19.6895 42.0327 19.6895 42.386C19.6895 42.7393 19.9411 43.0242 20.251 43.0242Z" fill="white"/>
<path d="M35.5643 44.2623C35.2161 45.9836 34.8295 47.7232 34.1913 49.3662C33.2248 51.4157 31.9101 53.272 30.7887 55.2049C30.692 55.3782 30.4221 55.2433 30.4988 55.07C31.4269 52.8854 32.7799 50.9325 33.6897 48.7663C33.7664 48.5347 34.193 47.2583 34.2696 47.0067C34.5796 46.0585 34.9078 45.1121 35.2744 44.1839C35.3511 44.0106 35.6027 44.0673 35.5643 44.2606V44.2623Z" fill="#374151"/>
</g>
<circle cx="25.9835" cy="25.9064" r="25.3278" stroke="#D1D5DB"/>
</g>
<defs>
<clipPath id="clip0_4028_263">
<rect width="51.8113" height="52" fill="white"/>
</clipPath>
</defs>
</svg>
