<svg width="54" height="81" viewBox="0 0 54 81" fill="none" xmlns="http://www.w3.org/2000/svg">
<g clip-path="url(#clip0_1_70)">
<path d="M13.5 80.5846C20.9531 80.5846 27 74.5689 27 67.1544V53.7241H13.5C6.04691 53.7241 0 59.7398 0 67.1544C0 74.5689 6.04691 80.5846 13.5 80.5846Z" fill="#6B7280"/>
<path d="M0 40.2907C0 32.8761 6.04691 26.8605 13.5 26.8605H27V53.721H13.5C6.04691 53.721 0 47.7053 0 40.2907Z" fill="#4B5563"/>
<path d="M0 13.4302C0 6.01566 6.04691 0 13.5 0H27V26.8605H13.5C6.04691 26.8605 0 20.8448 0 13.4302Z" fill="#6B7280"/>
<path d="M27 0H40.5C47.9531 0 54 6.01566 54 13.4302C54 20.8448 47.9531 26.8605 40.5 26.8605H27V0Z" fill="#9CA3AF"/>
<path d="M54 40.2907C54 47.7053 47.9531 53.721 40.5 53.721C33.0469 53.721 27 47.7053 27 40.2907C27 32.8761 33.0469 26.8605 40.5 26.8605C47.9531 26.8605 54 32.8761 54 40.2907Z" fill="#9CA3AF"/>
</g>
<defs>
<clipPath id="clip0_1_70">
<rect width="54" height="80.5846" fill="white"/>
</clipPath>
</defs>
</svg>
