<svg width="84" height="80" viewBox="0 0 84 80" fill="none" xmlns="http://www.w3.org/2000/svg">
<g clip-path="url(#clip0_1_66)">
<path d="M32.175 51.3501L59.8751 30.875C61.2251 29.875 63.1751 30.275 63.8251 31.825C67.2251 40.05 65.7001 49.925 58.9251 56.725C52.1501 63.5 42.7251 65 34.1001 61.6L24.675 65.975C38.1751 75.225 54.5751 72.925 64.8251 62.675C72.9501 54.525 75.4751 43.45 73.1251 33.45C69.7001 18.775 73.9751 12.9 82.6751 0.900049C82.8751 0.625049 83.0751 0.325049 83.3001 0.0500488L71.8251 11.525L32.1251 51.4" fill="#6B7280"/>
<path d="M26.475 56.3249C16.775 47.0499 18.45 32.6999 26.725 24.4499C32.85 18.3249 42.85 15.8249 51.6 19.4999L61 15.1499C59.3 13.9249 57.15 12.5999 54.65 11.6749C43.4 7.04994 29.925 9.34994 20.8 18.4999C12 27.2999 9.25002 40.8499 14 52.3999C17.55 61.0249 11.725 67.1499 5.87502 73.2999C3.80002 75.4749 1.72502 77.6749 0.0250244 79.9749L26.475 56.2999" fill="#6B7280"/>
</g>
<defs>
<clipPath id="clip0_1_66">
<rect width="83.325" height="80" fill="white"/>
</clipPath>
</defs>
</svg>
