<svg width="98" height="37" viewBox="0 0 98 37" fill="none" xmlns="http://www.w3.org/2000/svg">
<g clip-path="url(#clip0_1_119)">
<path d="M28.5604 17.2789L27.2649 23.0509C27.193 23.3716 26.8811 23.6183 26.5092 23.6183H24.9499C24.8299 23.6183 24.734 23.6923 24.698 23.8156C23.2586 28.8229 21.3154 32.2763 18.7484 34.3359C16.5653 36.0996 13.8664 36.9136 10.2679 36.9136C7.02918 36.9136 4.85807 35.8406 2.99883 33.7316C0.575816 30.9443 -0.431773 26.3809 0.179978 20.8679C1.28353 10.5449 6.4894 0.123265 16.5293 0.123265C19.5761 0.0985986 21.9751 1.0606 23.6424 2.99693C25.4057 5.04427 26.3053 8.11527 26.3053 12.1483C26.3053 12.5183 26.0054 12.8143 25.6456 12.8143H18.2926C18.0287 12.8143 17.8008 12.5676 17.8008 12.3086C17.7408 9.52127 16.9371 8.1646 15.3418 8.1646C12.5229 8.1646 10.8556 12.0989 9.97998 14.2819C8.74448 17.3283 8.12074 20.6336 8.24069 23.9266C8.30066 25.4559 8.54057 27.6143 9.95599 28.5146C11.2155 29.3039 13.0027 28.7859 14.0943 27.8979C15.1739 27.0223 16.0495 25.5053 16.4213 24.1116C16.4693 23.9143 16.4813 23.7663 16.4213 23.7046C16.3734 23.6306 16.2294 23.6183 16.1215 23.6183H14.2382C14.0343 23.6183 13.8304 23.5196 13.7105 23.3716C13.6145 23.2483 13.5665 23.0879 13.6025 22.9276L14.898 17.1679C14.9579 16.8719 15.2218 16.6499 15.5457 16.6129L27.9367 16.6006C27.9606 16.6006 27.9966 16.6006 28.0206 16.6006C28.3445 16.6376 28.5724 16.9459 28.5604 17.2913V17.2789Z" fill="#6B7280"/>
<path d="M49.8876 10.6683C49.8876 11.026 49.5877 11.322 49.2279 11.322H42.4506C42.0068 11.322 41.635 10.952 41.635 10.4957C41.635 8.46068 40.9512 7.47401 39.5478 7.47401C38.1444 7.47401 37.2448 8.36201 37.2208 9.90367C37.1968 11.6303 38.1324 13.1843 40.8313 15.873C44.3818 19.2893 45.7973 22.3233 45.7373 26.3317C45.6293 32.8067 41.3471 37 34.8217 37C31.4991 37 28.9441 36.0873 27.2528 34.2743C25.5375 32.4367 24.7459 29.748 24.9138 26.27C24.9138 25.9123 25.2137 25.6163 25.5735 25.6163H32.5787C32.7706 25.6163 32.9625 25.715 33.0825 25.8753C33.1904 26.011 33.2384 26.1837 33.2144 26.344C33.1424 27.602 33.3463 28.5393 33.8262 29.045C34.138 29.378 34.5579 29.5507 35.0976 29.5507C36.3931 29.5507 37.1488 28.6133 37.1728 26.973C37.1968 25.5547 36.765 24.3213 34.3899 21.8053C31.3312 18.722 28.5723 15.54 28.6683 10.545C28.7162 7.64668 29.8438 4.99501 31.823 3.07101C33.9221 1.04834 36.7889 -0.0246582 40.1236 -0.0246582C43.4582 8.46013e-06 45.9892 0.974342 47.6445 2.88601C49.2039 4.69901 49.9596 7.30134 49.8756 10.6437L49.8876 10.6683Z" fill="#6B7280"/>
<path d="M70.8911 35.7789L70.9391 1.33189C70.9391 0.974223 70.6632 0.678223 70.3034 0.678223H59.8196C59.4718 0.678223 59.3158 0.986556 59.2079 1.19622L44.0341 35.5816C44.0341 35.5816 44.0341 35.5816 44.0341 35.5939C43.8661 36.0132 44.19 36.4696 44.6338 36.4696H51.9628C52.3587 36.4696 52.6226 36.3462 52.7545 36.0872L54.2059 32.4982C54.3859 32.0172 54.4218 31.9802 54.9256 31.9802H61.9308C62.4226 31.9802 62.4226 31.9802 62.4226 32.4736L62.2666 35.8159C62.2666 36.1736 62.5425 36.4696 62.9024 36.4696H70.3034C70.4953 36.4696 70.6632 36.3832 70.7832 36.2476C70.8911 36.1242 70.9271 35.9639 70.9031 35.7912L70.8911 35.7789ZM57.9244 24.2842C57.8524 24.2842 57.8045 24.2842 57.7565 24.2842C57.6485 24.2842 57.5766 24.1609 57.6005 24.0622C57.6125 24.0129 57.6365 23.9389 57.6605 23.8649L62.9144 10.5079C62.9624 10.3722 63.0223 10.2489 63.0823 10.1256C63.1663 9.94055 63.2742 9.92822 63.2982 10.0639C63.3222 10.1749 62.6985 23.7786 62.6985 23.7786C62.6505 24.2842 62.6265 24.3089 62.1347 24.3459L57.9244 24.2966V24.2842Z" fill="#6B7280"/>
<path d="M85.813 0.678349H80.2472C79.9474 0.678349 79.6235 0.838682 79.5515 1.19635L71.8027 35.7667C71.7667 35.927 71.8027 36.0873 71.9106 36.2107C72.0306 36.3587 72.2345 36.4573 72.4384 36.4573H79.3956C79.7674 36.4573 80.0313 36.2723 80.0913 35.9393C80.0913 35.9393 80.931 32.0297 80.931 32.0173C80.9909 31.709 80.883 31.4747 80.6191 31.3267C80.4991 31.265 80.3672 31.191 80.2472 31.1293L79.0357 30.488L77.8362 29.8467C77.6803 29.7603 77.5243 29.6863 77.3684 29.6C77.2964 29.563 77.2485 29.4767 77.2485 29.3903C77.2485 29.2547 77.3564 29.156 77.4884 29.156H81.3028C82.4423 29.1807 83.5819 29.0943 84.7094 28.8847C92.6022 27.3923 97.844 20.8804 98 12.0373C98.1319 4.48935 94.0296 0.666016 85.825 0.666016L85.813 0.678349ZM83.9297 21.2503H83.7858C83.4499 21.2503 83.3899 21.2133 83.378 21.201C83.378 21.201 85.5731 11.248 85.5731 11.2357C85.633 10.952 85.621 10.7793 85.4531 10.6807C85.2372 10.5573 82.0105 8.80602 82.0105 8.80602C81.9385 8.76902 81.8906 8.68268 81.8906 8.59635C81.8906 8.47302 81.9985 8.36202 82.1305 8.36202H87.2164C88.7997 8.41135 89.6874 9.86668 89.6394 12.358C89.5674 16.6623 87.5762 21.1023 83.9177 21.2503H83.9297Z" fill="#6B7280"/>
</g>
<defs>
<clipPath id="clip0_1_119">
<rect width="98" height="37" fill="white"/>
</clipPath>
</defs>
</svg>
