<svg width="77" height="80" viewBox="0 0 77 80" fill="none" xmlns="http://www.w3.org/2000/svg">
<g clip-path="url(#clip0_1_131)">
<path fill-rule="evenodd" clip-rule="evenodd" d="M49.0109 0.184066L4.80922 3.45607C1.23825 3.76007 0 6.09607 0 8.88807V57.4161C0 59.5921 0.774907 61.4561 2.63628 63.9521L13.0296 77.4801C14.7392 79.6561 16.289 80.1281 19.5484 79.9681L70.884 76.8561C75.2219 76.5441 76.4682 74.5201 76.4682 71.1041V16.5121C76.4682 14.7441 75.7731 14.2321 73.72 12.7281L59.2604 2.52007C55.8333 0.0320663 54.4432 -0.287934 49.0109 0.184066ZM20.7068 15.6161C16.5127 15.8961 15.5621 15.9601 13.1814 14.0241L7.12595 9.20007C6.51082 8.57607 6.82238 7.80007 8.37219 7.64007L50.8643 4.52807C54.4352 4.21607 56.2886 5.46407 57.6866 6.55207L64.9724 11.8401C65.2839 12.0001 66.0588 12.9281 65.1242 12.9281L21.242 15.5761L20.6988 15.6161H20.7068ZM15.8177 70.6401V24.2961C15.8177 22.2721 16.4408 21.3361 18.2942 21.1841L68.6951 18.2321C70.4047 18.0801 71.1796 19.1681 71.1796 21.1841V67.2241C71.1796 69.2481 70.8681 70.9601 68.08 71.1121L19.844 73.9121C17.0559 74.0641 15.8177 73.1361 15.8177 70.6481V70.6401ZM63.4305 26.7761C63.7421 28.1761 63.4305 29.5761 62.0325 29.7361L59.7078 30.2001V64.4161C57.6866 65.5041 55.8333 66.1281 54.2755 66.1281C51.791 66.1281 51.1758 65.3521 49.3145 63.0161L34.1119 39.0641V62.2401L38.9211 63.3281C38.9211 63.3281 38.9211 66.1281 35.0386 66.1281L24.3417 66.7521C24.0301 66.1281 24.3417 64.5761 25.4281 64.2641L28.2242 63.4881V32.8481L24.3497 32.5361C24.0381 31.1361 24.813 29.1121 26.9859 28.9601L38.4658 28.1841L54.2834 52.4481V30.9841L50.2491 30.5201C49.9376 28.8081 51.1758 27.5601 52.7256 27.4081L63.4305 26.7841V26.7761Z" fill="#6B7280"/>
</g>
<defs>
<clipPath id="clip0_1_131">
<rect width="76.4602" height="80" fill="white"/>
</clipPath>
</defs>
</svg>
