<svg width="85" height="85" viewBox="0 0 85 85" fill="none" xmlns="http://www.w3.org/2000/svg">
<g clip-path="url(#clip0_1_124)">
<path d="M42.4975 0C19.0259 0 0 19.027 0 42.5C0 65.973 19.0259 85 42.4975 85C65.969 85 84.9949 65.973 84.9949 42.5C84.9949 19.027 65.9741 0 42.4975 0ZM61.9903 61.2987C61.229 62.5472 59.5949 62.943 58.3465 62.1767C48.3692 56.0813 35.8087 54.7009 21.0153 58.081C19.5892 58.4058 18.1682 57.5125 17.8435 56.0864C17.5187 54.6603 18.4068 53.2392 19.8379 52.9144C36.0269 49.2145 49.9119 50.8082 61.1174 57.6546C62.3658 58.421 62.7617 60.0502 61.9953 61.2987H61.9903ZM67.1921 49.7221C66.2329 51.2802 64.1928 51.7725 62.6348 50.8132C51.2111 43.7891 33.799 41.7539 20.2845 45.8598C18.5336 46.3876 16.6813 45.403 16.1484 43.6521C15.6206 41.9011 16.6102 40.0537 18.356 39.5208C33.7889 34.8364 52.9772 37.105 66.0959 45.1696C67.6539 46.1288 68.1462 48.169 67.187 49.7271L67.1921 49.7221ZM67.6387 37.6735C53.9414 29.5379 31.3428 28.7918 18.2647 32.7606C16.1637 33.395 13.9459 32.2125 13.3065 30.1114C12.6721 28.0102 13.8546 25.7923 15.9556 25.1529C30.9672 20.5953 55.9257 21.4784 71.6935 30.8371C73.5865 31.9587 74.2056 34.3999 73.0841 36.2828C71.9676 38.1708 69.5215 38.7951 67.6387 37.6735Z" fill="#6B7280"/>
</g>
<defs>
<clipPath id="clip0_1_124">
<rect width="85" height="85" fill="white"/>
</clipPath>
</defs>
</svg>
